<svg id="SvgjsSvg1021" width="288" height="288" xmlns="http://www.w3.org/2000/svg" version="1.1" xmlns:xlink="http://www.w3.org/1999/xlink" xmlns:svgjs="http://svgjs.com/svgjs"><defs id="SvgjsDefs1022"></defs><g id="SvgjsG1023" transform="matrix(0.9167,0,0,0.9167,11.994924140882489,11.995513951110837)"><svg xmlns="http://www.w3.org/2000/svg" xmlns:xlink="http://www.w3.org/1999/xlink" data-name="Layer 1" viewBox="0 0 258.19 263.44" width="288" height="288"><defs><linearGradient id="a" x1="110.83" x2="288.45" y1="156.96" y2="156.96" gradientUnits="userSpaceOnUse"><stop offset="0" stop-color="#f24049" class="stopColorf24049 svgShape"></stop><stop offset="1" stop-color="#9d41ef" class="stopColor9d41ef svgShape"></stop></linearGradient><linearGradient id="b" x1="124.93" x2="275.25" y1="245.05" y2="245.05" xlink:href="#a"></linearGradient><linearGradient id="c" x1="128.37" x2="243.79" y1="252.56" y2="252.56" xlink:href="#a"></linearGradient></defs><path fill="url(#a)" d="M268.15,75.73l-15.4,14v57.4h-28.7V41.43h-35.7V178.37l-28.7-3.81V117.73l-35.7,14V194H110.83l12.65,34.43c4.88-2.58,13-6.8,14.47-7.13,0,0,24.21-9.8,46.2-9.8a118.27,118.27,0,0,1,103.49,61c.81-8.46.81-40.08.81-40.08V89.73Z" transform="translate(-30.26 -41.43)"></path><path fill="url(#b)" d="M250.44,241.56c-34-28.18-89.69-31.69-125.51-9.14l1.87,5.09c34.47-17.09,83.46-11.09,114.7,14.82a98.93,98.93,0,0,1,18.38,20.1h15.37A98.31,98.31,0,0,0,250.44,241.56Z" transform="translate(-30.26 -41.43)"></path><path fill="url(#c)" d="M227.47,254c-26.6-22.07-70.34-28.41-99.1-12.2l1.63,4.45c27.48-12.22,65.73-3.88,90.25,16.46a80.55,80.55,0,0,1,9.88,9.74h13.66A79.38,79.38,0,0,0,227.47,254Z" transform="translate(-30.26 -41.43)"></path><polygon fill="#f24049" points="70.1 234.68 96.5 208.27 76.17 152.94 28.77 193.35 70.1 234.68" class="colorf24049 svgShape"></polygon><path fill="#f24049" d="M45.9,247.9c6.84,6.83,9.31,20.39,2.48,27.22a2.61,2.61,0,0,0-.22.27l0,0L32.66,290.84a8.23,8.23,0,0,0,0,11.63h0a8.24,8.24,0,0,0,11.64,0L58.77,288c6.84-6.83,20.39-4.36,27.23,2.48l11.88-11.88L56.55,237.26Z" transform="translate(-30.26 -41.43)" class="colorf24049 svgShape"></path></svg></g></svg>