<svg xmlns="http://www.w3.org/2000/svg" version="1.1" xmlns:xlink="http://www.w3.org/1999/xlink" xmlns:svgjs="http://svgjs.dev/svgjs" width="1440" height="560" preserveAspectRatio="none" viewBox="0 0 1440 560"><g mask="url(&quot;#SvgjsMask1100&quot;)" fill="none"><rect width="1440" height="560" x="0" y="0" fill="#0e2a47"></rect><path d="M101 194L360 453" stroke-width="6" stroke="url(&quot;#SvgjsLinearGradient1101&quot;)" stroke-linecap="round" class="TopLeft"></path><path d="M882 99L1261 478" stroke-width="6" stroke="url(&quot;#SvgjsLinearGradient1102&quot;)" stroke-linecap="round" class="BottomRight"></path><path d="M679 3L991 315" stroke-width="8" stroke="url(&quot;#SvgjsLinearGradient1101&quot;)" stroke-linecap="round" class="TopLeft"></path><path d="M868 123L1049 304" stroke-width="6" stroke="url(&quot;#SvgjsLinearGradient1103&quot;)" stroke-linecap="round" class="TopLeft"></path><path d="M1321 407L930 16" stroke-width="8" stroke="url(&quot;#SvgjsLinearGradient1103&quot;)" stroke-linecap="round" class="TopLeft"></path><path d="M1006 400L1180 574" stroke-width="8" stroke="url(&quot;#SvgjsLinearGradient1104&quot;)" stroke-linecap="round" class="TopLeft"></path><path d="M607 395L755 543" stroke-width="8" stroke="url(&quot;#SvgjsLinearGradient1105&quot;)" stroke-linecap="round" class="BottomRight"></path><path d="M314 151L145 -18" stroke-width="6" stroke="url(&quot;#SvgjsLinearGradient1104&quot;)" stroke-linecap="round" class="TopLeft"></path><path d="M29 314L172 457" stroke-width="6" stroke="url(&quot;#SvgjsLinearGradient1105&quot;)" stroke-linecap="round" class="BottomRight"></path><path d="M1426 134L1044 -248" stroke-width="6" stroke="url(&quot;#SvgjsLinearGradient1103&quot;)" stroke-linecap="round" class="TopLeft"></path><path d="M1137 546L721 130" stroke-width="8" stroke="url(&quot;#SvgjsLinearGradient1105&quot;)" stroke-linecap="round" class="BottomRight"></path><path d="M761 207L952 398" stroke-width="6" stroke="url(&quot;#SvgjsLinearGradient1106&quot;)" stroke-linecap="round" class="BottomRight"></path><path d="M1162 105L1564 507" stroke-width="8" stroke="url(&quot;#SvgjsLinearGradient1105&quot;)" stroke-linecap="round" class="BottomRight"></path><path d="M543 11L322 -210" stroke-width="8" stroke="url(&quot;#SvgjsLinearGradient1103&quot;)" stroke-linecap="round" class="TopLeft"></path><path d="M1019 2L607 -410" stroke-width="10" stroke="url(&quot;#SvgjsLinearGradient1105&quot;)" stroke-linecap="round" class="BottomRight"></path><path d="M200 277L-181 -104" stroke-width="10" stroke="url(&quot;#SvgjsLinearGradient1104&quot;)" stroke-linecap="round" class="TopLeft"></path><path d="M1106 249L1488 631" stroke-width="10" stroke="url(&quot;#SvgjsLinearGradient1103&quot;)" stroke-linecap="round" class="TopLeft"></path><path d="M421 467L563 609" stroke-width="6" stroke="url(&quot;#SvgjsLinearGradient1103&quot;)" stroke-linecap="round" class="TopLeft"></path><path d="M859 86L1125 352" stroke-width="6" stroke="url(&quot;#SvgjsLinearGradient1103&quot;)" stroke-linecap="round" class="TopLeft"></path><path d="M1170 313L1383 526" stroke-width="6" stroke="url(&quot;#SvgjsLinearGradient1101&quot;)" stroke-linecap="round" class="TopLeft"></path><path d="M1134 435L1331 632" stroke-width="10" stroke="url(&quot;#SvgjsLinearGradient1103&quot;)" stroke-linecap="round" class="TopLeft"></path><path d="M554 41L742 229" stroke-width="10" stroke="url(&quot;#SvgjsLinearGradient1105&quot;)" stroke-linecap="round" class="BottomRight"></path><path d="M291 264L616 589" stroke-width="10" stroke="url(&quot;#SvgjsLinearGradient1104&quot;)" stroke-linecap="round" class="TopLeft"></path><path d="M393 555L222 384" stroke-width="8" stroke="url(&quot;#SvgjsLinearGradient1104&quot;)" stroke-linecap="round" class="TopLeft"></path><path d="M794 511L1181 898" stroke-width="6" stroke="url(&quot;#SvgjsLinearGradient1106&quot;)" stroke-linecap="round" class="BottomRight"></path><path d="M953 70L783 -100" stroke-width="8" stroke="url(&quot;#SvgjsLinearGradient1101&quot;)" stroke-linecap="round" class="TopLeft"></path><path d="M199 46L-175 -328" stroke-width="8" stroke="url(&quot;#SvgjsLinearGradient1106&quot;)" stroke-linecap="round" class="BottomRight"></path><path d="M482 8L777 303" stroke-width="10" stroke="url(&quot;#SvgjsLinearGradient1104&quot;)" stroke-linecap="round" class="TopLeft"></path><path d="M210 299L560 649" stroke-width="8" stroke="url(&quot;#SvgjsLinearGradient1101&quot;)" stroke-linecap="round" class="TopLeft"></path><path d="M891 453L1142 704" stroke-width="10" stroke="url(&quot;#SvgjsLinearGradient1101&quot;)" stroke-linecap="round" class="TopLeft"></path><path d="M1026 480L1186 640" stroke-width="8" stroke="url(&quot;#SvgjsLinearGradient1104&quot;)" stroke-linecap="round" class="TopLeft"></path><path d="M105 8L-309 -406" stroke-width="6" stroke="url(&quot;#SvgjsLinearGradient1103&quot;)" stroke-linecap="round" class="TopLeft"></path><path d="M15 491L-237 239" stroke-width="6" stroke="url(&quot;#SvgjsLinearGradient1103&quot;)" stroke-linecap="round" class="TopLeft"></path><path d="M1197 230L1593 626" stroke-width="6" stroke="url(&quot;#SvgjsLinearGradient1105&quot;)" stroke-linecap="round" class="BottomRight"></path><path d="M899 420L677 198" stroke-width="8" stroke="url(&quot;#SvgjsLinearGradient1101&quot;)" stroke-linecap="round" class="TopLeft"></path><path d="M1235 207L1072 44" stroke-width="6" stroke="url(&quot;#SvgjsLinearGradient1106&quot;)" stroke-linecap="round" class="BottomRight"></path><path d="M469 396L834 761" stroke-width="8" stroke="url(&quot;#SvgjsLinearGradient1102&quot;)" stroke-linecap="round" class="BottomRight"></path><path d="M966 115L810 -41" stroke-width="8" stroke="url(&quot;#SvgjsLinearGradient1105&quot;)" stroke-linecap="round" class="BottomRight"></path><path d="M270 261L-104 -113" stroke-width="6" stroke="url(&quot;#SvgjsLinearGradient1101&quot;)" stroke-linecap="round" class="TopLeft"></path></g><defs><mask id="SvgjsMask1100"><rect width="1440" height="560" fill="#ffffff"></rect></mask><linearGradient x1="100%" y1="100%" x2="0%" y2="0%" id="SvgjsLinearGradient1101"><stop stop-color="rgba(0, 255, 242, 0)" offset="0"></stop><stop stop-color="rgba(0, 255, 242, 0.44)" offset="1"></stop></linearGradient><linearGradient x1="0%" y1="0%" x2="100%" y2="100%" id="SvgjsLinearGradient1102"><stop stop-color="rgba(157, 65, 239, 0)" offset="0"></stop><stop stop-color="rgba(157, 65, 239, 0.44)" offset="1"></stop></linearGradient><linearGradient x1="100%" y1="100%" x2="0%" y2="0%" id="SvgjsLinearGradient1103"><stop stop-color="rgba(157, 65, 239, 0)" offset="0"></stop><stop stop-color="rgba(157, 65, 239, 0.44)" offset="1"></stop></linearGradient><linearGradient x1="100%" y1="100%" x2="0%" y2="0%" id="SvgjsLinearGradient1104"><stop stop-color="rgba(242, 64, 73, 0)" offset="0"></stop><stop stop-color="rgba(242, 64, 73, 0.68)" offset="1"></stop></linearGradient><linearGradient x1="0%" y1="0%" x2="100%" y2="100%" id="SvgjsLinearGradient1105"><stop stop-color="rgba(0, 255, 242, 0)" offset="0"></stop><stop stop-color="rgba(0, 255, 242, 0.44)" offset="1"></stop></linearGradient><linearGradient x1="0%" y1="0%" x2="100%" y2="100%" id="SvgjsLinearGradient1106"><stop stop-color="rgba(242, 64, 73, 0)" offset="0"></stop><stop stop-color="rgba(242, 64, 73, 0.68)" offset="1"></stop></linearGradient></defs></svg>