<svg xmlns="http://www.w3.org/2000/svg" version="1.1" xmlns:xlink="http://www.w3.org/1999/xlink" xmlns:svgjs="http://svgjs.dev/svgjs" width="1440" height="250" preserveAspectRatio="none" viewBox="0 0 1440 250"><g mask="url(&quot;#SvgjsMask1018&quot;)" fill="none"><rect width="1440" height="250" x="0" y="0" fill="rgba(14, 42, 71, 1)"></rect><path d="M4 250L254 0L557 0L307 250z" fill="url(&quot;#SvgjsLinearGradient1019&quot;)"></path><path d="M260.6 250L510.6 0L785.1 0L535.1 250z" fill="url(&quot;#SvgjsLinearGradient1019&quot;)"></path><path d="M501.20000000000005 250L751.2 0L910.2 0L660.2 250z" fill="url(&quot;#SvgjsLinearGradient1019&quot;)"></path><path d="M714.8000000000001 250L964.8000000000001 0L1111.8000000000002 0L861.8000000000001 250z" fill="url(&quot;#SvgjsLinearGradient1019&quot;)"></path><path d="M1396 250L1146 0L916.5 0L1166.5 250z" fill="url(&quot;#SvgjsLinearGradient1020&quot;)"></path><path d="M1157.4 250L907.4000000000001 0L844.4000000000001 0L1094.4 250z" fill="url(&quot;#SvgjsLinearGradient1020&quot;)"></path><path d="M960.8 250L710.8 0L460.29999999999995 0L710.3 250z" fill="url(&quot;#SvgjsLinearGradient1020&quot;)"></path><path d="M685.1999999999999 250L435.19999999999993 0L366.19999999999993 0L616.1999999999999 250z" fill="url(&quot;#SvgjsLinearGradient1020&quot;)"></path><path d="M1199.256747949278 250L1440 9.256747949277951L1440 250z" fill="url(&quot;#SvgjsLinearGradient1019&quot;)"></path><path d="M0 250L240.74325205072205 250L 0 9.256747949277951z" fill="url(&quot;#SvgjsLinearGradient1020&quot;)"></path></g><defs><mask id="SvgjsMask1018"><rect width="1440" height="250" fill="#ffffff"></rect></mask><linearGradient x1="0%" y1="100%" x2="100%" y2="0%" id="SvgjsLinearGradient1019"><stop stop-color="rgba(242, 64, 73, 1)" offset="0"></stop><stop stop-opacity="0" stop-color="rgba(242, 64, 73, 1)" offset="0.66"></stop></linearGradient><linearGradient x1="100%" y1="100%" x2="0%" y2="0%" id="SvgjsLinearGradient1020"><stop stop-color="rgba(242, 64, 73, 1)" offset="0"></stop><stop stop-opacity="0" stop-color="rgba(242, 64, 73, 1)" offset="0.66"></stop></linearGradient></defs></svg>