<svg xmlns="http://www.w3.org/2000/svg" version="1.1" xmlns:xlink="http://www.w3.org/1999/xlink" xmlns:svgjs="http://svgjs.dev/svgjs" width="1440" height="250" preserveAspectRatio="none" viewBox="0 0 1440 250"><g mask="url(&quot;#SvgjsMask1036&quot;)" fill="none"><path d="M42 250L292 0L469 0L219 250z" fill="url(&quot;#SvgjsLinearGradient1037&quot;)"></path><path d="M247.60000000000002 250L497.6 0L755.6 0L505.6 250z" fill="url(&quot;#SvgjsLinearGradient1037&quot;)"></path><path d="M504.20000000000005 250L754.2 0L899.7 0L649.7 250z" fill="url(&quot;#SvgjsLinearGradient1037&quot;)"></path><path d="M726.8000000000001 250L976.8000000000001 0L1086.3000000000002 0L836.3000000000001 250z" fill="url(&quot;#SvgjsLinearGradient1037&quot;)"></path><path d="M1433 250L1183 0L1019.5 0L1269.5 250z" fill="url(&quot;#SvgjsLinearGradient1038&quot;)"></path><path d="M1169.4 250L919.4000000000001 0L838.4000000000001 0L1088.4 250z" fill="url(&quot;#SvgjsLinearGradient1038&quot;)"></path><path d="M928.8 250L678.8 0L453.79999999999995 0L703.8 250z" fill="url(&quot;#SvgjsLinearGradient1038&quot;)"></path><path d="M714.1999999999999 250L464.19999999999993 0L362.19999999999993 0L612.1999999999999 250z" fill="url(&quot;#SvgjsLinearGradient1038&quot;)"></path><path d="M1238.867837567206 250L1440 48.867837567205896L1440 250z" fill="url(&quot;#SvgjsLinearGradient1037&quot;)"></path><path d="M0 250L201.1321624327941 250L 0 48.867837567205896z" fill="url(&quot;#SvgjsLinearGradient1038&quot;)"></path></g><defs><mask id="SvgjsMask1036"><rect width="1440" height="250" fill="#ffffff"></rect></mask><linearGradient x1="0%" y1="100%" x2="100%" y2="0%" id="SvgjsLinearGradient1037"><stop stop-color="rgba(157, 65, 239, 0.66)" offset="0"></stop><stop stop-opacity="0" stop-color="rgba(157, 65, 239, 0.66)" offset="0.66"></stop></linearGradient><linearGradient x1="100%" y1="100%" x2="0%" y2="0%" id="SvgjsLinearGradient1038"><stop stop-color="rgba(157, 65, 239, 0.66)" offset="0"></stop><stop stop-opacity="0" stop-color="rgba(157, 65, 239, 0.66)" offset="0.66"></stop></linearGradient></defs></svg>